<?xml version="1.0" standalone="no"?>
<!DOCTYPE svg PUBLIC "-//W3C//DTD SVG 20010904//EN"
 "http://www.w3.org/TR/2001/REC-SVG-20010904/DTD/svg10.dtd">
<svg version="1.0" xmlns="http://www.w3.org/2000/svg"
 width="250.000000pt" height="226.000000pt" viewBox="0 0 250.000000 226.000000"
 preserveAspectRatio="xMidYMid meet">

<g transform="translate(0.000000,226.000000) scale(0.100000,-0.100000)"
fill="#000000" stroke="none">
<path d="M1155 1677 c-210 -56 -365 -211 -420 -422 -46 -177 15 -386 155 -525
107 -108 234 -160 390 -160 162 0 296 56 402 169 109 115 158 237 158 391 0
240 -140 440 -367 526 -83 32 -238 41 -318 21z m236 -41 c239 -51 408 -259
409 -502 0 -150 -49 -271 -151 -373 -99 -100 -224 -151 -365 -151 -203 0 -379
111 -469 294 -189 386 153 821 576 732z"/>
<path d="M1175 1592 c-43 -10 -68 -23 -59 -32 10 -10 94 8 94 21 0 12 -13 16
-35 11z"/>
<path d="M1270 1590 c0 -5 12 -10 28 -10 15 0 37 -3 50 -6 16 -5 22 -2 22 10
0 13 -11 16 -50 16 -27 0 -50 -4 -50 -10z"/>
<path d="M1430 1562 c0 -9 64 -42 80 -42 20 0 9 20 -20 35 -32 16 -60 20 -60
7z"/>
<path d="M1013 1519 c-31 -19 -49 -60 -20 -43 35 21 67 46 67 55 0 14 -12 11
-47 -12z"/>
<path d="M1570 1482 c0 -15 68 -74 74 -64 8 13 -41 72 -60 72 -8 0 -14 -4 -14
-8z"/>
<path d="M894 1400 c-15 -22 -24 -43 -21 -47 9 -8 29 10 50 46 27 46 2 48 -29
1z"/>
<path d="M1424 1383 c-13 -2 -44 -37 -79 -89 -32 -46 -61 -84 -64 -83 -3 0
-31 38 -61 84 l-55 85 -54 0 c-67 0 -67 1 32 -152 43 -65 77 -120 77 -123 0
-3 -10 -5 -22 -5 -54 0 -68 -10 -68 -50 0 -42 9 -49 68 -52 32 -1 30 -2 -13
-7 -49 -6 -50 -6 -53 -43 l-3 -38 50 0 51 0 0 -41 0 -40 53 3 52 3 3 38 c3 37
4 37 48 37 l44 0 0 40 0 40 -42 1 -43 2 40 6 c40 6 40 6 40 51 l0 45 -42 3
c-24 2 -43 5 -43 8 0 2 39 63 87 135 70 105 84 132 73 140 -15 9 -38 10 -76 2z"/>
<path d="M1671 1364 c2 -5 11 -26 19 -46 8 -21 20 -38 27 -38 7 0 13 3 13 8
-2 18 -36 76 -49 80 -7 2 -12 1 -10 -4z"/>
<path d="M836 1292 c-13 -21 -18 -92 -7 -92 6 0 11 3 11 8 0 4 4 24 9 45 8 34
0 59 -13 39z"/>
<path d="M1730 1169 c0 -36 4 -49 13 -46 6 2 12 11 11 20 0 10 -1 31 -2 47 -3
51 -22 33 -22 -21z"/>
<path d="M810 1096 c0 -25 5 -48 11 -51 16 -10 18 -4 12 48 -7 59 -23 62 -23
3z"/>
<path d="M1721 1024 c-13 -48 -14 -64 -1 -64 14 0 33 81 22 92 -7 7 -14 -3
-21 -28z"/>
<path d="M840 965 c0 -22 29 -75 40 -75 14 0 12 14 -7 55 -17 37 -33 46 -33
20z"/>
<path d="M1657 878 c-28 -36 -34 -58 -18 -58 13 0 53 68 49 82 -2 6 -16 -4
-31 -24z"/>
<path d="M920 826 c0 -19 59 -68 72 -60 5 4 -5 21 -23 40 -36 37 -49 42 -49
20z"/>
<path d="M1535 755 c-22 -19 -34 -34 -26 -35 17 0 81 39 81 50 0 21 -19 16
-55 -15z"/>
<path d="M1042 729 c4 -13 62 -47 81 -49 4 0 7 6 7 13 0 7 -17 19 -37 27 -21
8 -42 17 -47 19 -5 2 -6 -3 -4 -10z"/>
<path d="M1400 695 c-31 -11 -54 -35 -33 -35 22 0 83 22 83 30 0 15 -14 17
-50 5z"/>
<path d="M1190 670 c0 -5 6 -10 13 -10 6 0 29 -3 50 -6 30 -5 37 -4 37 10 0
13 -10 16 -50 16 -27 0 -50 -4 -50 -10z"/>
</g>
</svg>
